<svg viewBox="0 0 40 40" fill="none" xmlns="http://www.w3.org/2000/svg">
  <!-- Outer circle with gradient -->
  <circle cx="20" cy="20" r="18" fill="url(#aiGradient)" />
  
  <!-- Brain-like neural network pattern -->
  <g>
    <!-- Central AI core -->
    <circle cx="20" cy="16" r="3" fill="white" opacity="0.9" />
    
    <!-- Neural connections - dynamic lines -->
    <path
      d="M17 16 L13 12 M23 16 L27 12 M17 18 L12 22 M23 18 L28 22 M20 19 L20 25"
      stroke="white"
      stroke-width="1.5"
      stroke-linecap="round"
      opacity="0.7"
    />
    
    <!-- Neural nodes -->
    <circle cx="13" cy="12" r="1.5" fill="white" opacity="0.8" />
    <circle cx="27" cy="12" r="1.5" fill="white" opacity="0.8" />
    <circle cx="12" cy="22" r="1.5" fill="white" opacity="0.8" />
    <circle cx="28" cy="22" r="1.5" fill="white" opacity="0.8" />
    <circle cx="20" cy="25" r="1.5" fill="white" opacity="0.8" />
  </g>
  
  <!-- Question mark for "How to" -->
  <path
    d="M16 30 Q16 28 18 28 Q20 28 20 26 Q20 24 18 24 M18 32 L18 32"
    stroke="white"
    stroke-width="2"
    stroke-linecap="round"
    fill="none"
  />
  
  <!-- Arrow pointing forward (guidance/direction) -->
  <path
    d="M25 28 L29 30 L25 32 M29 30 L23 30"
    stroke="white"
    stroke-width="2"
    stroke-linecap="round"
    stroke-linejoin="round"
    fill="none"
  />
  
  <defs>
    <linearGradient id="aiGradient" x1="2" y1="2" x2="38" y2="38">
      <stop offset="0%" stop-color="#8B5CF6" />
      <stop offset="50%" stop-color="#3B82F6" />
      <stop offset="100%" stop-color="#06B6D4" />
    </linearGradient>
  </defs>
</svg>
